<svg width="1000" height="620" viewBox="0 0 1000 620" fill="none" xmlns="http://www.w3.org/2000/svg">
  <rect width="1000" height="620" rx="40" fill="#F7F7F7"/>
  <path d="M126 171L208 133L282 155L310 216L280 283L229 320L163 312L112 259L126 171Z" fill="#D9DEE4" stroke="#B4BDC8" stroke-width="12" stroke-linejoin="round"/>
  <path d="M338 141L392 119L470 132L531 174L560 234L552 292L515 342L454 338L418 294L384 274L350 233L338 141Z" fill="#D9DEE4" stroke="#B4BDC8" stroke-width="12" stroke-linejoin="round"/>
  <path d="M538 188L607 150L700 165L776 205L826 272L820 334L760 374L684 372L626 342L572 286L538 188Z" fill="#D9DEE4" stroke="#B4BDC8" stroke-width="12" stroke-linejoin="round"/>
  <path d="M730 417L775 405L824 424L856 458L850 500L810 527L761 520L729 487L730 417Z" fill="#D9DEE4" stroke="#B4BDC8" stroke-width="12" stroke-linejoin="round"/>
</svg>
